:SAMPLES-PER-SECOND 30
:FULLY-SPECIFIED
:DEGREES
110
root  9.55886 39.3185 19.6871 -7.2966 74.7834 -1.8423
RightUpLeg  14.9123 -11.8304 -5.34675
RightLeg  15.2233 0.459436 3.69341
RightFoot  -18.6709 -0.154545 -0.422699
RightToes  0.000482159 0.542163 -0.142577
Spine  7.57777 1.59362 8.88831
Spine1  8.57367 3.34892 -3.86146
HEad  12.6818 10.7158 -2.13829
LeftShoulder1  7.07854 -10.8839 -42.7528
LeftArm  -7.90641 28.6846 -30.7753
LeftForeArm  36.8125 -12.6888 -4.99489
LeftHand  -0.25398 0.0180481 5.50724
RightShoulder  4.28377 7.57955 32.7082
RightArm  4.74091 -0.310653 39.1558
RightForeArm  3.98195 36.7734 8.15084
RightHand  -1.76104 4.27027 -21.2738
LeftUpLeg  -15.104 2.74791 2.28987
LeftLeg  -5.14067 18.8207 -6.87126
LeftFoot  -0.274456 0.367905 -3.7386
LeftToes  1.06245e-005 4.65855e-005 -8.18503e-006
111
root  11.2587 38.9656 19.9254 -7.32856 75.0683 -1.65507
RightUpLeg  17.6277 -13.3672 -7.0025
RightLeg  16.5994 2.41474 3.32239
RightFoot  -19.5902 -0.0574908 1.0415
RightToes  0.000482159 0.542163 -0.142577
Spine  7.34319 1.41533 8.22063
Spine1  9.15672 3.2226 -3.9683
HEad  13.0829 11.3772 -1.76441
LeftShoulder1  7.00602 -10.761 -42.6739
LeftArm  -8.95183 29.5563 -30.6071
LeftForeArm  37.8819 -10.8793 -5.06165
LeftHand  -0.25398 0.0180481 5.50724
RightShoulder  4.27196 7.56884 32.6387
RightArm  4.34548 0.336504 39.6638
RightForeArm  4.07537 35.2786 7.71299
RightHand  -1.83734 4.61482 -21.4355
LeftUpLeg  -15.7601 3.01907 1.59692
LeftLeg  -4.20159 23.8146 -7.39962
LeftFoot  -1.04243 0.208552 -2.30358
LeftToes  1.06245e-005 4.65855e-005 -8.18503e-006
112
root  13.0556 38.6078 20.1607 -5.79898 75.5786 -0.0216721
RightUpLeg  19.8694 -15.2298 -9.39996
RightLeg  18.9839 5.25792 3.05462
RightFoot  -20.1995 0.151768 3.63056
RightToes  0.000482159 0.542163 -0.142577
Spine  6.70685 1.48385 6.81075
Spine1  9.8014 3.16114 -3.56426
HEad  13.98 11.399 -1.17281
LeftShoulder1  7.0143 -10.7167 -42.8688
LeftArm  -9.08584 30.12 -30.0612
LeftForeArm  38.3184 -9.74035 -5.10357
LeftHand  -0.25398 0.0180481 5.50724
RightShoulder  4.24517 7.44916 32.816
RightArm  3.38476 -0.00678928 39.8601
RightForeArm  3.37947 33.1293 7.16137
RightHand  -1.88276 4.78063 -21.6055
LeftUpLeg  -16.9885 4.35284 -0.119978
LeftLeg  1.32409 25.8994 -5.5864
LeftFoot  1.79325 -0.277684 2.19225
LeftToes  1.06245e-005 4.65855e-005 -8.18503e-006
113
root  14.9109 38.2712 20.3894 -2.20555 75.742 4.24364
RightUpLeg  21.186 -15.0109 -12.0201
RightLeg  23.5297 7.19876 3.09779
RightFoot  -19.553 0.483388 8.80959
RightToes  0.000482159 0.542163 -0.142577
Spine  6.6611 1.92247 4.63641
Spine1  9.87604 3.32346 -2.91202
HEad  15.5547 10.9266 -0.237324
LeftShoulder1  7.00148 -10.6144 -43.1141
LeftArm  -8.74621 30.3008 -29.2666
LeftForeArm  38.5233 -9.04934 -5.19586
LeftHand  -0.25398 0.0180481 5.50724
RightShoulder  4.3006 7.39583 33.5096
RightArm  2.11926 -1.31887 39.6378
RightForeArm  2.27676 30.1054 6.4322
RightHand  -1.93912 4.97395 -21.8319
LeftUpLeg  -18.5927 11.4171 -4.4647
LeftLeg  9.60444 18.303 -1.09077
LeftFoot  5.1977 -1.076 7.22244
LeftToes  1.06245e-005 4.65855e-005 -8.18503e-006
114
root  16.6839 38.1049 20.5831 3.96069 75.8647 11.4385
RightUpLeg  19.7204 -11.2078 -13.476
RightLeg  31.484 4.61244 2.73167
RightFoot  -13.7383 0.182737 13.9995
RightToes  0.000482159 0.542163 -0.142577
Spine  7.44127 2.29448 1.94023
Spine1  9.46223 3.46728 -2.51644
HEad  17.4137 10.1584 0.763705
LeftShoulder1  6.93118 -10.4319 -43.246
LeftArm  -8.48738 29.7191 -28.5927
LeftForeArm  38.6094 -8.59657 -5.26864
LeftHand  -0.25398 0.0180481 5.50724
RightShoulder  4.42526 7.48488 34.3177
RightArm  0.9129 -2.89492 39.7028
RightForeArm  0.973332 25.5788 5.47718
RightHand  -2.05659 5.46846 -22.1039
LeftUpLeg  -19.3692 18.9493 -9.61409
LeftLeg  15.6943 8.65388 2.27416
LeftFoot  5.59685 -1.55484 10.2242
LeftToes  1.06245e-005 4.65855e-005 -8.18503e-006
115
root  18.2915 38.096 20.7132 11.6035 76.0368 19.7869
RightUpLeg  14.4404 -7.78888 -14.4172
RightLeg  43.0128 1.31021 0.995195
RightFoot  -1.4531 -1.16874 14.1116
RightToes  0.000482159 0.542163 -0.142577
Spine  8.39073 2.34669 -0.384243
Spine1  9.12057 3.42947 -2.70802
HEad  18.9012 9.52468 1.22777
LeftShoulder1  6.94373 -10.4113 -43.3958
LeftArm  -8.58598 28.1759 -28.2431
LeftForeArm  38.3141 -8.64599 -5.26228
LeftHand  -0.25398 0.0180481 5.50724
RightShoulder  4.52186 7.64814 34.5922
RightArm  -1.62212 -3.97356 40.5091
RightForeArm  1.22457 19.508 5.18074
RightHand  -2.11039 5.81261 -21.9978
LeftUpLeg  -18.4107 19.127 -11.8395
LeftLeg  19.6904 8.08745 3.64996
LeftFoot  2.53137 -1.31655 10.6267
LeftToes  1.06245e-005 4.65855e-005 -8.18503e-006
116
root  19.6844 38.1062 20.7889 18.8394 75.6852 27.4357
RightUpLeg  6.65554 -4.3964 -14.893
RightLeg  54.9072 -0.193665 -0.648601
RightFoot  10.5537 -1.72047 9.22088
RightToes  0.000482159 0.542163 -0.142577
Spine  9.50298 2.37821 -2.18982
Spine1  9.28889 3.3851 -3.45249
HEad  19.7281 9.28763 0.914433
LeftShoulder1  7.10662 -10.6618 -43.6439
LeftArm  -8.95511 25.9048 -28.2764
LeftForeArm  37.3831 -9.70936 -5.16072
LeftHand  -0.25398 0.0180481 5.50724
RightShoulder  4.58331 7.86476 34.3634
RightArm  -7.46393 -4.36645 41.3956
RightForeArm  6.08872 13.0258 6.3418
RightHand  -1.92333 5.28621 -21.0466
LeftUpLeg  -16.6087 18.7397 -13.435
LeftLeg  21.8304 9.17714 4.35146
LeftFoot  -1.33876 -0.854061 9.82066
LeftToes  1.06245e-005 4.65855e-005 -8.18503e-006
117
root  20.9955 38.1945 20.8413 21.9039 75.0007 31.1577
RightUpLeg  -0.788159 -1.08962 -14.7458
RightLeg  63.8424 -0.315686 -1.28194
RightFoot  14.8516 -1.05006 4.85429
RightToes  0.000482159 0.542163 -0.142577
Spine  11.0684 2.42723 -3.01084
Spine1  9.60269 3.33619 -4.14382
HEad  20.1334 9.46338 0.113161
LeftShoulder1  7.24641 -10.9125 -43.7359
LeftArm  -9.16153 23.3552 -28.8233
LeftForeArm  35.6828 -12.0739 -4.85485
LeftHand  -0.25398 0.0180481 5.50724
RightShoulder  4.688 8.16513 34.2236
RightArm  -9.79862 -4.54255 41.8315
RightForeArm  10.1142 8.57218 6.58588
RightHand  -1.61147 4.18583 -19.696
LeftUpLeg  -13.9569 19.6659 -14.1682
LeftLeg  22.4358 8.8467 4.34801
LeftFoot  -4.13138 -0.549271 9.1126
LeftToes  1.06245e-005 4.65855e-005 -8.18503e-006
118
root  22.3391 38.5053 20.8813 21.4834 75.2206 31.4793
RightUpLeg  -6.55627 1.03061 -13.7876
RightLeg  67.7964 -0.495355 -2.05302
RightFoot  13.0848 -0.653812 3.4611
RightToes  0.000482159 0.542163 -0.142577
Spine  12.6658 1.97058 -2.70266
Spine1  9.67683 2.83165 -4.16152
HEad  20.5682 9.96313 -0.770562
LeftShoulder1  7.21816 -10.9277 -43.5067
LeftArm  -8.66074 20.9891 -29.7933
LeftForeArm  33.3604 -15.8267 -4.17127
LeftHand  -0.25398 0.0180481 5.50724
RightShoulder  4.81549 8.44053 34.3644
RightArm  -8.66647 -5.20176 41.7419
RightForeArm  13.3575 7.22663 6.59553
RightHand  -1.43952 3.48303 -18.9919
LeftUpLeg  -10.0863 20.0298 -13.4753
LeftLeg  21.2672 8.38833 3.81668
LeftFoot  -5.49556 -0.409165 8.64932
LeftToes  1.06245e-005 4.65855e-005 -8.18503e-006
119
root  23.6879 38.8482 20.9247 21.4162 76.7797 31.6245
RightUpLeg  -11.1964 1.38088 -12.4936
RightLeg  67.1464 -0.866904 -2.96108
RightFoot  10.0133 -0.722315 4.18976
RightToes  0.000482159 0.542163 -0.142577
Spine  13.5542 0.963756 -2.22158
Spine1  9.65934 1.58096 -3.40815
HEad  21.377 10.6418 -1.58077
LeftShoulder1  7.1302 -10.8472 -43.201
LeftArm  -8.02655 19.2009 -30.6137
LeftForeArm  31.9602 -21.0136 -3.47192
LeftHand  -0.25398 0.0180481 5.50724
RightShoulder  4.83167 8.47797 34.3731
RightArm  -6.67925 -6.78656 41.5009
RightForeArm  15.7945 8.59059 6.79895
RightHand  -1.44203 3.43341 -19.1175
LeftUpLeg  -6.30212 17.7402 -12.1601
LeftLeg  19.7545 9.66649 3.22196
LeftFoot  -6.66804 -0.295011 8.20108
LeftToes  1.06245e-005 4.65855e-005 -8.18503e-006
120
root  25.0596 39.1326 20.9763 22.8165 79.0653 32.8167
RightUpLeg  -14.9862 0.676693 -11.0725
RightLeg  63.0067 -1.63696 -4.04635
RightFoot  8.05395 -0.559626 3.57862
RightToes  0.000482159 0.542163 -0.142577
Spine  13.716 -0.194416 -2.03016
Spine1  9.65088 -0.0467485 -2.00212
HEad  22.6657 11.2438 -2.15746
LeftShoulder1  7.14211 -10.9044 -43.0956
LeftArm  -9.07626 18.0826 -30.6957
LeftForeArm  34.0774 -27.3771 -4.00599
LeftHand  -0.25398 0.0180481 5.50724
RightShoulder  4.69262 8.24438 33.9942
RightArm  -3.24363 -9.12498 41.2788
RightForeArm  14.4401 11.7706 6.85644
RightHand  -1.49917 3.66547 -19.3675
LeftUpLeg  -2.78627 13.6178 -10.8859
LeftLeg  17.9756 11.9487 2.2157
LeftFoot  -8.04101 -0.177122 7.82155
LeftToes  1.06245e-005 4.65855e-005 -8.18503e-006
